<svg width="90" height="90" fill="none" xmlns="http://www.w3.org/2000/svg"><circle cx="45" cy="45" r="44.5" fill="#fff" stroke="#E6E6E6"/><g clip-path="url(#clip0)" fill="#7930AE"><path d="M37.044 27.596h-9.617a1.611 1.611 0 100 3.222h9.617a1.612 1.612 0 000-3.222zm0 6.445h-9.617a1.611 1.611 0 100 3.223h9.617a1.611 1.611 0 000-3.223zm0 6.445h-9.617a1.611 1.611 0 100 3.223h9.617a1.611 1.611 0 000-3.223zm0 6.448h-9.617a1.611 1.611 0 100 3.222h9.617a1.611 1.611 0 000-3.222zm0 6.552h-9.617a1.612 1.612 0 000 3.223h9.617a1.611 1.611 0 000-3.223zm5.411-22.668h9.617a1.611 1.611 0 100-3.222h-9.617a1.612 1.612 0 000 3.222zm0 6.446h9.617a1.611 1.611 0 100-3.223h-9.617a1.612 1.612 0 000 3.223zm6.243 4.834c0-.89-.721-1.612-1.611-1.612h-4.632a1.612 1.612 0 000 3.223h4.632a1.61 1.61 0 001.611-1.611zm15.265 12.069a1.611 1.611 0 00-2.265.248l-4.15 5.174-2.57-1.861a1.611 1.611 0 10-1.89 2.61l3.81 2.761a1.607 1.607 0 002.203-.297l5.11-6.37a1.611 1.611 0 00-.248-2.265z"/><path d="M68.035 49.22a13.288 13.288 0 00-7.717-3.878V23.489A6.497 6.497 0 0053.828 17H25.671a6.497 6.497 0 00-6.49 6.49v37.325a6.497 6.497 0 006.49 6.49h22.646A13.264 13.264 0 0058.494 72c7.379 0 13.382-6.007 13.382-13.391 0-3.535-1.364-6.87-3.84-9.389zm-45.63 11.596V23.489a3.27 3.27 0 013.266-3.266h28.157a3.27 3.27 0 013.267 3.266v21.802c-6.724.702-11.983 6.406-11.983 13.318 0 1.915.4 3.767 1.166 5.473H25.67a3.27 3.27 0 01-3.267-3.266zm36.089 7.961a10.083 10.083 0 01-8.117-4.053 10.086 10.086 0 01-2.043-6.115c0-5.607 4.558-10.169 10.16-10.169l.159.002h.025a10.095 10.095 0 017.06 3.037 10.113 10.113 0 012.915 7.13c0 5.607-4.557 10.168-10.16 10.168z"/></g><defs><clipPath id="clip0"><path fill="#fff" transform="translate(18 17)" d="M0 0h55v55H0z"/></clipPath></defs></svg>