<svg width="90" height="90" fill="none" xmlns="http://www.w3.org/2000/svg"><circle cx="45" cy="45" r="44.5" fill="#fff" stroke="#E6E6E6"/><path fill-rule="evenodd" clip-rule="evenodd" d="M70.966 64.273V21.966a2 2 0 00-2-2H35.703V18.72c0-.89-.722-1.612-1.612-1.612H20.745c-.89 0-1.61.722-1.61 1.612v24.19c0 .89.72 1.612 1.61 1.612h1.286v2.086a3.437 3.437 0 003.433 3.434h.343v.755a1.612 1.612 0 003.223 0v-.755h.343a3.437 3.437 0 003.433-3.434v-2.086h1.285c.89 0 1.612-.722 1.612-1.612V32.225h.256c1.096 0 1.987.89 1.987 1.986v5.425a3.75 3.75 0 003.745 3.745 3.75 3.75 0 003.745-3.745v-4.484a2.93 2.93 0 012.927-2.927c.917 0 1.736.424 2.273 1.085v19.994h-2.991c-.89 0-1.612.721-1.612 1.61v9.25H34.185v-6.658c0-.89-.722-1.612-1.612-1.612H22.264c-.89 0-1.611.722-1.611 1.612v6.659H18.61c-.89 0-1.611.72-1.611 1.61v4.608c0 .89.721 1.611 1.611 1.611h51.78a1.61 1.61 0 001.611-1.611v-4.607c0-.686-.43-1.27-1.034-1.503zm-21.71-7.747h18.487v7.639H49.256v-7.639zM53.86 23.19h13.883v30.115H53.86V23.189zM20.223 67.387h48.554v1.385H20.223v-1.385zm9.15-20.567h-3.909a.21.21 0 01-.21-.21v-2.087h4.33v2.086a.21.21 0 01-.211.211zm-7.016-5.52V20.33H32.48V41.3H22.357zm26.006-12.298a6.156 6.156 0 00-6.15 6.15v4.484a.523.523 0 01-1.045 0V34.21a5.214 5.214 0 00-5.208-5.209h-.257V23.19h14.934v6.25a6.117 6.117 0 00-2.274-.437zM30.962 59.117v5.048h-7.087v-5.048h7.087z" fill="#7930AE"/></svg>