<svg width="90" height="90" fill="none" xmlns="http://www.w3.org/2000/svg"><circle cx="45" cy="45" r="44.5" fill="#fff" stroke="#E6E6E6"/><path d="M45.5 26.445c-5.36 0-9.722 4.361-9.722 9.722 0 5.36 4.361 9.722 9.722 9.722 5.36 0 9.722-4.361 9.722-9.722 0-5.36-4.361-9.722-9.722-9.722zm0 16.221a6.506 6.506 0 01-6.499-6.499 6.506 6.506 0 016.499-6.499 6.506 6.506 0 016.499 6.499 6.506 6.506 0 01-6.499 6.499zm-14.507-8.111H27.77a1.611 1.611 0 100 3.222h3.223a1.611 1.611 0 100-3.222zm32.227 3.222a1.611 1.611 0 100-3.222h-3.223a1.611 1.611 0 100 3.222h3.222z" fill="#7930AE"/><path d="M71.389 20H19.61a1.61 1.61 0 00-1.611 1.611v29.112c0 .89.721 1.611 1.611 1.611h19.444v9.792h-3.14c-1.431 0-2.155 1.742-1.135 2.755l9.716 9.651a1.611 1.611 0 002.28-.008l9.577-9.651c1.007-1.015.285-2.746-1.144-2.746h-3.264v-9.793H71.39c.89 0 1.611-.722 1.611-1.611V21.61a1.61 1.61 0 00-1.611-1.611zm-1.612 7.853a6.47 6.47 0 01-4.63-4.63h4.63v4.63zm-43.924-4.63a6.47 6.47 0 01-4.63 4.63v-4.63h4.63zm-4.63 21.258a6.47 6.47 0 014.63 4.63h-4.63v-4.63zm29.111 4.63c-.89 0-1.611.722-1.611 1.612v13.015c0 .89.721 1.611 1.611 1.611h1.006l-5.716 5.76-5.8-5.76h.842a1.61 1.61 0 001.611-1.611V50.723c0-.89-.721-1.612-1.611-1.612H29.144a9.692 9.692 0 00-7.921-7.921V31.144a9.692 9.692 0 007.921-7.921h32.712a9.692 9.692 0 007.921 7.921V41.19a9.692 9.692 0 00-7.921 7.921H50.334zm14.813 0a6.47 6.47 0 014.63-4.63v4.63h-4.63z" fill="#7930AE"/></svg>