<svg width="90" height="90" fill="none" xmlns="http://www.w3.org/2000/svg"><circle cx="45" cy="45" r="44.5" fill="#fff" stroke="#E6E6E6"/><g clip-path="url(#clip0)"><path d="M72.25 43.72a4.6 4.6 0 00-3.576-1.45V22.986A3.99 3.99 0 0064.689 19H36.53a3.99 3.99 0 00-3.985 3.985v22.19c-1.532.615-2.512 1.466-3.088 2.116h-8.836c-.896 0-1.622.726-1.622 1.622v17.223c0 .896.726 1.622 1.622 1.622h9.588l23.607.416a9.178 9.178 0 006.95-2.999l11.554-12.7A6.429 6.429 0 0074 48.084a6.427 6.427 0 00-1.75-4.364zM47.653 22.243h5.69v4.864h-5.69v-4.864zm-11.864.741a.74.74 0 01.74-.74h7.88v6.485c0 .895.727 1.622 1.623 1.622h8.933c.896 0 1.622-.727 1.622-1.622v-6.486h8.1c.41 0 .742.332.742.741v20.758l-8.641 6.896a5.38 5.38 0 00-2.195-2.477c-1.339-.795-2.67-.819-2.817-.819h-7.123c-.975-1.15-3.209-2.967-7.59-2.967-.447 0-.871.02-1.274.055V22.985zm-13.546 27.55h6.358v13.98h-6.358v-13.98zm47.678-.242l-11.556 12.7a5.943 5.943 0 01-4.492 1.938l-22.028-.388V49.469c.465-.546 1.922-1.849 5.218-1.849 3.966 0 5.177 1.848 5.306 2.067.257.59.808.9 1.454.9h7.953c.006 0 .594.027 1.16.363.804.479 1.195 1.376 1.195 2.743 0 1.323-.365 2.204-1.114 2.692a2.74 2.74 0 01-1.258.415H40.603a1.622 1.622 0 100 3.243h11.174c.147 0 1.478-.023 2.817-.819 1.18-.702 2.573-2.111 2.76-4.886l10.606-8.464.043-.035a1.364 1.364 0 011.883.102 3.22 3.22 0 01.036 4.351z" fill="#7930AE"/></g><defs><clipPath id="clip0"><path fill="#fff" transform="translate(18 17)" d="M0 0h55v55H0z"/></clipPath></defs></svg>