<svg width="90" height="90" fill="none" xmlns="http://www.w3.org/2000/svg"><circle cx="45" cy="45" r="44.5" fill="#fff" stroke="#E6E6E6"/><path d="M65.972 67.595l-5.996-16.428a19.253 19.253 0 004.886-12.832C64.862 27.673 56.189 19 45.527 19c-10.66 0-19.334 8.674-19.334 19.335 0 4.92 1.848 9.415 4.885 12.831l-5.996 16.429a1.647 1.647 0 001.709 2.204l5.977-.583 4.204 4.29a1.649 1.649 0 002.725-.59l5.55-15.25.28.003c.094 0 .187-.002.28-.003l5.55 15.25a1.647 1.647 0 002.726.59l4.203-4.29 5.978.584a1.647 1.647 0 001.708-2.205zm-20.445-45.3c8.844 0 16.04 7.196 16.04 16.04 0 8.843-7.196 16.039-16.04 16.039-8.843 0-16.039-7.196-16.039-16.04 0-8.843 7.196-16.038 16.04-16.038zm-8.032 47.036l-2.925-2.985a1.647 1.647 0 00-1.337-.487l-4.157.406 4.617-12.651a19.46 19.46 0 002.417 1.602l-2.03 5.578a1.648 1.648 0 003.096 1.127l1.945-5.344c.888.313 1.805.562 2.745.743l-4.371 12.01zm20.327-3.472a1.647 1.647 0 00-1.337.487L53.56 69.33l-4.372-12.01c.941-.181 1.858-.43 2.745-.743l1.945 5.344a1.65 1.65 0 002.112.985 1.648 1.648 0 00.985-2.112l-2.03-5.579a19.378 19.378 0 002.416-1.601l4.618 12.651-4.157-.406z" fill="#7930AE"/><path d="M39.57 38.616l-.961 5.605a1.647 1.647 0 002.39 1.738l5.034-2.647 5.034 2.647a1.647 1.647 0 002.39-1.738l-.96-5.605 4.072-3.97a1.648 1.648 0 00-.913-2.81l-5.628-.817-2.517-5.1a1.649 1.649 0 00-2.955 0l-2.517 5.1-5.628.817a1.648 1.648 0 00-.913 2.81l4.072 3.97zm3.8-4.46c.537-.079 1-.416 1.24-.903l1.423-2.882 1.423 2.882c.24.487.704.824 1.24.902l3.182.462-2.303 2.244a1.65 1.65 0 00-.473 1.459l.543 3.168-2.845-1.496a1.647 1.647 0 00-1.533 0l-2.846 1.496.544-3.169a1.648 1.648 0 00-.474-1.458l-2.302-2.244 3.18-.462z" fill="#7930AE"/></svg>