<svg width="90" height="90" fill="none" xmlns="http://www.w3.org/2000/svg"><circle cx="45" cy="45" r="44.5" fill="#fff" stroke="#E6E6E6"/><g clip-path="url(#clip0)" fill="#7930AE"><path d="M70.569 36.36L46.583 17.25a1.64 1.64 0 00-2.045 0L20.552 36.36a1.64 1.64 0 00-.618 1.284v32.608c0 .906.734 1.64 1.64 1.64h47.973a1.64 1.64 0 001.64-1.64V37.644c0-.5-.228-.972-.618-1.284zM60.296 68.611h-3.778v-8.034a1.64 1.64 0 00-1.64-1.64h-3.019v-8.035a1.64 1.64 0 00-1.64-1.641h-9.317a1.64 1.64 0 00-1.64 1.64v8.035h-3.018a1.64 1.64 0 00-1.641 1.64v8.035h-3.779V42.624h29.473V68.61zm-17.754-9.675v-6.394h6.036v6.394h-6.036zm-4.658 3.282h6.036v6.393h-6.036v-6.394zm9.317 6.393v-6.394h6.035v6.394h-6.035zm20.705 0h-4.328V40.983a1.64 1.64 0 00-1.64-1.64H29.183a1.64 1.64 0 00-1.641 1.64v27.628h-4.328V38.434L45.56 20.631l22.346 17.803v30.177z"/><path d="M38.26 30.072v4.956c0 .906.734 1.64 1.64 1.64h11.32a1.64 1.64 0 001.64-1.64v-4.956a1.64 1.64 0 00-1.64-1.64H39.9a1.64 1.64 0 00-1.64 1.64zm3.28 1.641h8.04v1.674h-8.04v-1.674z"/></g><defs><clipPath id="clip0"><path fill="#fff" transform="translate(18 17)" d="M0 0h55v55H0z"/></clipPath></defs></svg>