<svg width="90" height="90" fill="none" xmlns="http://www.w3.org/2000/svg"><circle cx="45" cy="45" r="44.5" fill="#fff" stroke="#E6E6E6"/><path d="M65.68 34.378l2.574-2.573a4.84 4.84 0 000-6.836 4.839 4.839 0 00-6.836 0l-2.543 2.543a23.98 23.98 0 00-8.541-3.579v-3.71h1.611a1.611 1.611 0 000-3.223h-12.89a1.611 1.611 0 100 3.223h1.611v3.71a23.979 23.979 0 00-8.541 3.579l-2.543-2.543a4.839 4.839 0 00-6.836 0 4.84 4.84 0 000 6.836l2.574 2.573a24.21 24.21 0 00-3.99 13.345C21.33 61.109 32.173 72 45.5 72c13.327 0 24.17-10.89 24.17-24.277a24.21 24.21 0 00-3.99-13.345zm-1.983-7.13a1.613 1.613 0 012.278 0c.628.628.628 1.65 0 2.278l-2.258 2.259a24.424 24.424 0 00-2.27-2.288l2.25-2.25zm-19.808-7.025h3.222V23.5a24.29 24.29 0 00-1.611-.055c-.542 0-1.078.02-1.611.055v-3.277zm-18.864 9.303a1.613 1.613 0 010-2.279 1.613 1.613 0 012.278 0l2.25 2.25a24.424 24.424 0 00-2.27 2.288l-2.258-2.26zM45.5 68.777c-11.55 0-20.947-9.445-20.947-21.054 0-11.588 9.378-21.055 20.947-21.055 11.548 0 20.947 9.448 20.947 21.055 0 11.61-9.397 21.054-20.947 21.054z" fill="#7930AE"/><path d="M45.5 29.998c-9.773 0-17.725 7.951-17.725 17.725 0 4.73 1.844 9.197 5.192 12.576 3.358 3.39 7.81 5.256 12.533 5.256 4.724 0 9.175-1.867 12.533-5.256 3.348-3.379 5.192-7.845 5.192-12.576 0-9.774-7.952-17.725-17.725-17.725zm1.611 32.243v-1.52a1.611 1.611 0 10-3.222 0v1.52c-6.716-.75-12.062-6.14-12.802-12.907h1.522a1.611 1.611 0 000-3.223h-1.52c.745-6.711 6.088-12.055 12.8-12.8v1.521a1.611 1.611 0 103.222 0v-1.521c6.712.745 12.056 6.089 12.8 12.8h-1.52c-.89 0-1.612.722-1.612 1.612 0 .89.722 1.6 1.612 1.6h1.522c-.74 6.767-6.086 12.167-12.802 12.918z" fill="#7930AE"/><path d="M51.945 46.111h-4.834v-4.834a1.611 1.611 0 00-3.222 0v6.446c0 .89.721 1.611 1.611 1.611h6.445a1.611 1.611 0 000-3.223z" fill="#7930AE"/></svg>