<svg width="37" height="35" fill="none" xmlns="http://www.w3.org/2000/svg"><path d="M13.608 35c-1.813 0-3.022-1.219-3.022-3.046 0-1.828 1.21-3.046 3.022-3.046 1.814 0 3.023 1.218 3.023 3.046 0 1.827-1.21 3.045-3.023 3.045zm16.636-.006c-1.813 0-3.022-1.217-3.022-3.043s1.209-3.043 3.022-3.043c1.813 0 3.022 1.217 3.022 3.043s-1.209 3.043-3.022 3.043z" fill="#7930AE"/><path fill-rule="evenodd" clip-rule="evenodd" d="M1.512 3.043h4.81L7.58 9.365c.006.043.015.086.025.128l2.527 12.7a4.543 4.543 0 004.536 3.673H29.34c2.168.042 4.08-1.506 4.508-3.675L36.27 9.414a1.519 1.519 0 00-1.486-1.806H10.315l-1.27-6.385A1.515 1.515 0 007.562 0h-6.05C.677 0 0 .681 0 1.522c0 .84.677 1.521 1.512 1.521zm11.316 18.555L10.586 10.65h22.685l-2.138 10.958c-.145.712-.801 1.228-1.555 1.214H14.415c-.784.014-1.44-.502-1.587-1.225z" fill="#7930AE"/></svg>