<svg width="20" height="20" fill="none" xmlns="http://www.w3.org/2000/svg"><path fill-rule="evenodd" clip-rule="evenodd" d="M9.167 3.65L7.25 5.569a.805.805 0 01-1.167 0 .807.807 0 010-1.168l3.334-3.338A.436.436 0 019.542.98a.444.444 0 00.125-.083c.25-.084.5-.084.666 0 .084 0 .167.083.25.166l3.334 3.338a.807.807 0 010 1.168.756.756 0 01-.584.25.756.756 0 01-.583-.25l-1.917-1.92v9.678c0 .5-.333.835-.833.835-.5 0-.833-.334-.833-.835V3.65zm9.166 13.014v-2.502c0-.5-.333-.835-.833-.835-.5 0-.833.334-.833.835v2.502c0 .501-.334.835-.834.835H4.167c-.5 0-.834-.334-.834-.834v-2.503c0-.5-.333-.835-.833-.835-.5 0-.833.334-.833.835v2.502c0 1.419 1.083 2.503 2.5 2.503h11.666c1.417 0 2.5-1.084 2.5-2.503z" fill="#000"/><mask id="a" maskUnits="userSpaceOnUse" x="1" y="0" width="18" height="20"><path fill-rule="evenodd" clip-rule="evenodd" d="M9.167 3.65L7.25 5.569a.805.805 0 01-1.167 0 .807.807 0 010-1.168l3.334-3.338A.436.436 0 019.542.98a.444.444 0 00.125-.083c.25-.084.5-.084.666 0 .084 0 .167.083.25.166l3.334 3.338a.807.807 0 010 1.168.756.756 0 01-.584.25.756.756 0 01-.583-.25l-1.917-1.92v9.678c0 .5-.333.835-.833.835-.5 0-.833-.334-.833-.835V3.65zm9.166 13.014v-2.502c0-.5-.333-.835-.833-.835-.5 0-.833.334-.833.835v2.502c0 .501-.334.835-.834.835H4.167c-.5 0-.834-.334-.834-.834v-2.503c0-.5-.333-.835-.833-.835-.5 0-.833.334-.833.835v2.502c0 1.419 1.083 2.503 2.5 2.503h11.666c1.417 0 2.5-1.084 2.5-2.503z" fill="#fff"/></mask><g mask="url(#a)"><path fill="#068C96" d="M0 0h20v20H0z"/></g></svg>