<svg width="50" height="49" fill="none" xmlns="http://www.w3.org/2000/svg"><rect x=".875" y=".125" width="48.263" height="48.263" rx="24.131" fill="#EA4335"/><path d="M36.52 19.602h3.086c.005 1.032.015 2.069.021 3.1 1.032.01 2.069.016 3.101.021v3.09l-3.101.016a644.48 644.48 0 00-.021 3.107c-1.032-.006-2.064 0-3.09 0-.01-1.038-.01-2.07-.021-3.102-1.032-.01-2.07-.015-3.101-.02v-3.091c1.032-.005 2.064-.01 3.1-.02.006-1.032.016-2.07.027-3.101zM8.548 24.27c-.212-5.601 4.693-10.777 10.3-10.844 2.857-.244 5.636.866 7.799 2.676-.887.975-1.79 1.939-2.754 2.841-1.904-1.156-4.195-2.038-6.42-1.255-3.589 1.022-5.762 5.259-4.434 8.77 1.1 3.666 5.56 5.678 9.054 4.137 1.81-.647 3.003-2.317 3.527-4.111-2.074-.042-4.149-.016-6.223-.073-.005-1.234-.01-2.464-.005-3.698 3.459-.005 6.923-.015 10.387.016.212 3.023-.234 6.26-2.2 8.686-2.69 3.464-7.663 4.48-11.709 3.121-4.293-1.41-7.415-5.735-7.322-10.267z" fill="#fff"/></svg>