<svg width="55" height="55" fill="none" xmlns="http://www.w3.org/2000/svg"><path d="M50.553 11.989h-9.167V5.515a4.446 4.446 0 00-4.441-4.44h-18.89a4.446 4.446 0 00-4.44 4.44v6.474H4.447A4.452 4.452 0 000 16.436v14.29c0 1.313.573 2.495 1.481 3.31v15.94a3.94 3.94 0 003.936 3.936h44.166a3.94 3.94 0 003.936-3.935v-15.94A4.437 4.437 0 0055 30.725v-14.29a4.452 4.452 0 00-4.447-4.447zM16.922 5.515c0-.625.508-1.133 1.133-1.133h18.89c.624 0 1.133.508 1.133 1.133v6.474H34.55V8.792c0-.914-.74-1.654-1.654-1.654H22.104c-.914 0-1.654.74-1.654 1.654v3.197h-3.528V5.515zm6.835 6.474v-1.544h7.486v1.544h-7.486zm-20.45 4.447c0-.628.512-1.14 1.14-1.14h46.106c.628 0 1.14.512 1.14 1.14v14.29c0 .629-.512 1.14-1.14 1.14h-6.069v-3.63c0-.913-.74-1.653-1.653-1.653h-5.316c-.913 0-1.654.74-1.654 1.653v3.63H19.139v-3.63c0-.913-.74-1.653-1.654-1.653H12.17c-.913 0-1.653.74-1.653 1.653v3.63H4.448a1.14 1.14 0 01-1.14-1.14v-14.29zM39.168 29.89h2.009v7.26h-2.009v-7.26zm-25.345 0h2.009v7.26h-2.009v-7.26zm36.388 20.087a.628.628 0 01-.627.628H5.417a.629.629 0 01-.628-.628V35.174h5.727v3.63c0 .913.74 1.653 1.653 1.653h5.316c.913 0 1.654-.74 1.654-1.654v-3.63h16.722v3.63c0 .914.74 1.654 1.654 1.654h5.316c.913 0 1.653-.74 1.653-1.654v-3.63h5.727v14.804z" fill="#7930AE"/></svg>