<svg width="55" height="55" fill="none" xmlns="http://www.w3.org/2000/svg"><g clip-path="url(#clip0)"><path d="M55 17.573a1.611 1.611 0 00-.476-1.15L40.744 2.751a1.611 1.611 0 00-2.275.004L34.465 6.76a17.895 17.895 0 00-6.964.72 17.877 17.877 0 00-6.966-.72l-4.004-4.005a1.611 1.611 0 00-2.275-.004L.476 16.423a1.612 1.612 0 00.01 2.297l4.097 4.003a17.89 17.89 0 00.783 7.153 17.548 17.548 0 001.917 4.066l-.716.716a4.84 4.84 0 000 6.836 4.81 4.81 0 001.501 1.018 4.842 4.842 0 00.778 5.818 4.831 4.831 0 005.816.78 4.84 4.84 0 007.856 1.499l.425-.425.983.984c.055.055.112.104.171.149a4.802 4.802 0 003.403 1.4 4.801 4.801 0 003.409-1.405c.9-.873.581-.56 1.149-1.127.56.56 1.684 1.84 3.843 1.84a4.802 4.802 0 003.418-1.416 4.829 4.829 0 001.02-1.5 4.84 4.84 0 005.816-.779 4.842 4.842 0 00.777-5.818 4.83 4.83 0 001.501-7.855l-.718-.718a17.871 17.871 0 002.702-11.216l4.098-4.003c.309-.302.483-.715.485-1.147zM8.845 39.215a1.613 1.613 0 010-2.279l.432-.431c.137.145.275.29.417.431l1.855 1.855-.425.424a1.613 1.613 0 01-2.279 0zm4.558 6.837a1.61 1.61 0 11-2.279-2.28l2.704-2.702 2.278 2.278-2.703 2.704zm6.836 2.278a1.613 1.613 0 01-2.75-1.139c0-.43.167-.835.471-1.14l.425-.424 2.279 2.279-.425.424zm25.916-9.114a1.613 1.613 0 01-2.28 0L32.483 27.822a1.611 1.611 0 10-2.279 2.278l13.673 13.673c.628.628.628 1.65 0 2.279a1.613 1.613 0 01-2.279 0L27.924 32.379a1.611 1.611 0 00-2.278 2.279L37.04 46.053a1.61 1.61 0 11-2.28 2.277L23.367 36.937a1.611 1.611 0 00-2.279 2.278l8.69 8.69c-.522.524-.287.292-1.12 1.1l-.019.018a1.601 1.601 0 01-1.139.472 1.6 1.6 0 01-1.157-.49c-.959-.928-13.342-13.32-14.37-14.347-3.256-3.256-4.751-7.742-4.102-12.307a1.611 1.611 0 00-.47-1.38l-3.493-3.413 11.479-11.39 3.422 3.423c.358.358.864.527 1.366.456a14.554 14.554 0 012.39-.139 17.89 17.89 0 00-2.326 1.962l-9.115 9.115a4.831 4.831 0 003.418 8.25 4.819 4.819 0 003.418-1.413l6.465-6.465a11.29 11.29 0 006.474.324l15.256 15.256c.63.63.63 1.649 0 2.279zm1.444-18.245c-.368.36-.542.871-.47 1.38a14.624 14.624 0 01-1.761 9.241L34.116 20.34c.743-.455 1.44-1 2.075-1.634a1.611 1.611 0 10-2.28-2.278 8.071 8.071 0 01-9.17 1.575 1.612 1.612 0 00-1.834.315l-7.225 7.225a1.613 1.613 0 01-2.751-1.14c0-.43.168-.834.472-1.139l9.115-9.115c3.235-3.235 7.716-4.755 12.307-4.102a1.612 1.612 0 001.366-.456l3.422-3.422 11.479 11.39-3.493 3.412z" fill="#7930AE"/></g><defs><clipPath id="clip0"><path fill="#fff" d="M0 0h55v55H0z"/></clipPath></defs></svg>