<svg width="55" height="55" fill="none" xmlns="http://www.w3.org/2000/svg"><path d="M50.166 0H4.834A4.84 4.84 0 000 4.834v45.332A4.84 4.84 0 004.834 55h45.332A4.84 4.84 0 0055 50.166V4.834A4.84 4.84 0 0050.166 0zM22.671 3.223h9.668v9.775h-9.668V3.223zm29.106 46.943c0 .889-.723 1.611-1.611 1.611H4.834a1.613 1.613 0 01-1.611-1.611V4.834c0-.888.723-1.611 1.611-1.611h14.615v11.386c0 .89.721 1.612 1.611 1.612h12.89c.89 0 1.612-.722 1.612-1.612V3.223h14.604c.889 0 1.611.723 1.611 1.611v45.332z" fill="#7930AE"/><path d="M37.168 43.607h-19.33a1.611 1.611 0 000 3.223h19.33a1.611 1.611 0 000-3.223zm-18.197-11.75l.472-.472v7.395a1.611 1.611 0 003.223 0v-7.395l.472.472a1.611 1.611 0 102.279-2.279l-3.223-3.222a1.614 1.614 0 00-2.279 0l-3.222 3.222a1.611 1.611 0 102.278 2.28zm12.88 0l.472-.472v7.395a1.611 1.611 0 003.223 0v-7.395l.472.472a1.611 1.611 0 102.279-2.279l-3.223-3.222a1.614 1.614 0 00-2.279 0l-3.222 3.222a1.611 1.611 0 102.278 2.28z" fill="#7930AE"/></svg>