<svg width="55" height="55" fill="none" xmlns="http://www.w3.org/2000/svg"><path d="M9.132 26.855H24.17a1.61 1.61 0 001.611-1.61V24.17a9.135 9.135 0 00-4.662-7.958 5.882 5.882 0 001.44-3.858 5.915 5.915 0 00-5.909-5.909 5.915 5.915 0 00-5.908 5.909c0 1.473.544 2.822 1.44 3.858-2.78 1.567-4.663 4.546-4.663 7.958v1.074c0 .89.722 1.611 1.612 1.611zm7.52-17.187a2.689 2.689 0 012.685 2.686 2.689 2.689 0 01-2.686 2.685 2.689 2.689 0 01-2.685-2.685 2.689 2.689 0 012.685-2.686zm0 8.594a5.916 5.916 0 015.883 5.37H10.767a5.916 5.916 0 015.884-5.37zm11.816-5.908h6.445a1.611 1.611 0 100-3.223h-6.445a1.611 1.611 0 000 3.223zm0 6.445h6.445a1.611 1.611 0 100-3.223h-6.445a1.611 1.611 0 100 3.223z" fill="#7930AE"/><path d="M52.825 14.477l-1.519-1.52a3.764 3.764 0 00-5.317 0l-3.02 3.02V1.611A1.608 1.608 0 0041.36 0H2.685a1.61 1.61 0 00-1.611 1.611V53.39c0 .89.721 1.611 1.611 1.611h38.672c.89 0 1.612-.721 1.612-1.611V29.65l6.817-6.817 3.038-3.038a3.764 3.764 0 000-5.317zM30.417 37.644l-2.278-2.279 11.394-11.394 2.278 2.28-11.393 11.393zm-4.052.505l1.269 1.269-2.327 1.058 1.058-2.327zm13.382 13.628H4.297V3.223h35.45V19.2L24.72 34.226a1.61 1.61 0 00-.328.472l-.439.966H9.132a1.611 1.611 0 100 3.223h13.357l-1.465 3.222H9.133a1.611 1.611 0 100 3.223h12.93c.226 0 .453-.047.667-.145l8.355-3.797c.176-.08.336-.191.473-.328l8.19-8.19v18.905zm4.343-27.806l-2.279-2.278 2.28-2.28 2.278 2.28-2.279 2.278zm6.457-6.456l-1.9 1.899-2.278-2.279 1.899-1.899c.21-.21.55-.21.76 0l1.519 1.52c.21.209.209.55 0 .759z" fill="#7930AE"/></svg>