<svg width="55" height="55" fill="none" xmlns="http://www.w3.org/2000/svg"><g clip-path="url(#clip0)" fill="#7930AE"><path d="M51.397 22.879H42.92V6.647a4.503 4.503 0 00-4.498-4.499H4.39A4.503 4.503 0 00-.107 6.647v24.817a4.503 4.503 0 004.498 4.498h3.307l2.4 9.6a1.65 1.65 0 002.874.65l8.455-10.25h4.427v6.49a3.5 3.5 0 003.496 3.496h11.123l5.304 6.43a1.65 1.65 0 002.874-.65l1.445-5.78h1.301a3.5 3.5 0 003.496-3.495V26.374a3.5 3.5 0 00-3.496-3.495zM20.65 32.662c-.492 0-.959.22-1.272.6l-6.87 8.327-1.92-7.677a1.65 1.65 0 00-1.6-1.25H4.39a1.2 1.2 0 01-1.198-1.198V6.647A1.2 1.2 0 014.39 5.449h34.03a1.2 1.2 0 011.198 1.198v24.817a1.2 1.2 0 01-1.197 1.198H20.649zm30.943 9.79a.195.195 0 01-.195.195h-2.59a1.65 1.65 0 00-1.6 1.25l-.965 3.857-3.718-4.506a1.65 1.65 0 00-1.273-.6H29.35a.195.195 0 01-.195-.195v-6.49h9.267a4.503 4.503 0 004.498-4.499V26.18h8.477c.108 0 .195.087.195.195v16.079z"/><path d="M26.684 28.421a1.65 1.65 0 01-.768-.19l-4.51-2.37-4.51 2.37a1.65 1.65 0 01-2.394-1.74l.861-5.021-3.649-3.557a1.652 1.652 0 01.915-2.814l5.042-.733 2.255-4.57a1.651 1.651 0 012.96 0l2.255 4.57 5.042.733a1.65 1.65 0 01.915 2.814l-3.649 3.557.861 5.022a1.65 1.65 0 01-1.626 1.93zM16.413 17.884l1.875 1.828c.39.38.567.926.475 1.461l-.443 2.581 2.319-1.219a1.649 1.649 0 011.535 0l2.318 1.22-.442-2.582a1.65 1.65 0 01.474-1.46l1.875-1.829-2.591-.377a1.649 1.649 0 01-1.243-.902l-1.159-2.349-1.159 2.349a1.65 1.65 0 01-1.242.902l-2.592.377z"/></g><defs><clipPath id="clip0"><path fill="#fff" d="M0 0h55v55H0z"/></clipPath></defs></svg>