<svg width="47" height="48" fill="none" xmlns="http://www.w3.org/2000/svg"><path d="M15.668 23.5a7.833 7.833 0 1115.667 0 7.833 7.833 0 11-15.667 0zm-4.235 0c0 6.665 5.403 12.068 12.068 12.068 6.664 0 12.067-5.403 12.067-12.067 0-6.665-5.403-12.068-12.067-12.068-6.665 0-12.068 5.403-12.068 12.068zm21.793-12.545a2.82 2.82 0 102.82-2.82 2.822 2.822 0 00-2.82 2.82zm-19.22 31.674c-2.29-.104-3.536-.485-4.364-.808-1.097-.427-1.88-.936-2.703-1.758s-1.333-1.604-1.758-2.701c-.322-.827-.704-2.073-.808-4.364-.114-2.477-.137-3.221-.137-9.497s.025-7.018.137-9.497c.104-2.291.489-3.535.808-4.364.427-1.098.936-1.88 1.758-2.704.822-.823 1.604-1.332 2.703-1.757.827-.323 2.073-.705 4.364-.809 2.477-.114 3.222-.137 9.495-.137s7.017.025 9.497.137c2.29.105 3.534.489 4.364.809 1.097.425 1.88.935 2.703 1.757.823.822 1.33 1.606 1.758 2.704.322.827.704 2.072.808 4.364.114 2.479.137 3.221.137 9.497s-.023 7.018-.137 9.497c-.104 2.291-.488 3.536-.808 4.364-.427 1.097-.936 1.88-1.758 2.701-.822.822-1.606 1.331-2.703 1.758-.827.323-2.073.704-4.364.809-2.477.113-3.222.136-9.497.136-6.276 0-7.018-.023-9.495-.136zM13.812.142C11.31.256 9.6.652 8.108 1.234a11.527 11.527 0 00-4.163 2.71C2.637 5.25 1.834 6.562 1.234 8.109.653 9.6.256 11.31.142 13.812.027 16.317 0 17.119 0 23.5s.027 7.183.142 9.688c.114 2.502.51 4.21 1.092 5.705.6 1.545 1.403 2.857 2.71 4.163 1.308 1.305 2.617 2.109 4.164 2.71 1.495.581 3.202.978 5.704 1.092 2.507.114 3.307.142 9.689.142s7.183-.026 9.689-.142c2.501-.114 4.21-.51 5.704-1.092 1.545-.601 2.855-1.404 4.163-2.71 1.308-1.306 2.109-2.618 2.71-4.163.581-1.494.98-3.203 1.092-5.705.114-2.507.14-3.306.14-9.688 0-6.382-.026-7.184-.14-9.69-.114-2.501-.51-4.21-1.092-5.703-.601-1.546-1.404-2.856-2.71-4.163-1.306-1.308-2.618-2.111-4.161-2.711C37.4.653 35.69.254 33.19.142 30.686.028 29.884 0 23.502 0c-6.381 0-7.183.027-9.69.142z" fill="#fff"/></svg>