<svg width="40" height="40" fill="none" xmlns="http://www.w3.org/2000/svg"><rect width="40" height="40" rx="20" fill="#068C96"/><path d="M15.834 20a4.166 4.166 0 118.333-.001 4.166 4.166 0 01-8.333.001zm-2.252 0a6.418 6.418 0 1012.837 0 6.418 6.418 0 00-12.837 0zm11.591-6.673a1.5 1.5 0 101.5-1.5 1.5 1.5 0 00-1.5 1.5zM14.95 30.175c-1.218-.056-1.88-.259-2.32-.43a3.9 3.9 0 01-1.439-.935 3.857 3.857 0 01-.935-1.437c-.171-.44-.374-1.103-.43-2.321-.06-1.318-.072-1.714-.072-5.052 0-3.338.013-3.733.072-5.051.056-1.22.26-1.88.43-2.322.227-.583.498-1 .935-1.438a3.852 3.852 0 011.438-.934c.44-.172 1.103-.375 2.321-.43 1.318-.061 1.714-.073 5.05-.073 3.337 0 3.733.013 5.052.072 1.219.056 1.88.26 2.321.43.584.227 1 .498 1.438.936.438.437.708.854.935 1.437.172.44.375 1.103.43 2.322.06 1.318.073 1.713.073 5.051s-.012 3.733-.073 5.052c-.055 1.218-.26 1.88-.43 2.32-.227.584-.498 1-.935 1.438a3.885 3.885 0 01-1.438.935c-.44.171-1.102.374-2.321.43-1.318.06-1.713.072-5.052.072-3.338 0-3.732-.012-5.05-.072zm-.103-22.6c-1.33.061-2.24.272-3.034.581a6.131 6.131 0 00-2.215 1.442 6.107 6.107 0 00-1.441 2.214c-.31.795-.52 1.704-.58 3.035C7.513 16.178 7.5 16.605 7.5 20c0 3.395.014 3.82.076 5.154.06 1.33.272 2.239.58 3.034a6.11 6.11 0 001.442 2.214 6.146 6.146 0 002.215 1.442c.795.309 1.703.52 3.034.58 1.333.06 1.759.076 5.153.076 3.395 0 3.821-.014 5.154-.076 1.33-.06 2.24-.271 3.034-.58a6.147 6.147 0 002.214-1.442 6.123 6.123 0 001.442-2.214c.31-.795.521-1.704.58-3.034.061-1.334.075-1.76.075-5.154 0-3.395-.014-3.82-.074-5.153-.06-1.331-.272-2.24-.58-3.035a6.147 6.147 0 00-1.443-2.214 6.116 6.116 0 00-2.213-1.442c-.796-.309-1.704-.52-3.034-.58C23.822 7.516 23.396 7.5 20 7.5c-3.394 0-3.82.014-5.154.076z" fill="#fff"/></svg>