<svg width="20" height="20" fill="none" xmlns="http://www.w3.org/2000/svg"><path fill-rule="evenodd" clip-rule="evenodd" d="M16.667 2.5H3.333C1.917 2.5.833 3.583.833 5v10c0 1.417 1.084 2.5 2.5 2.5h13.334c1.416 0 2.5-1.083 2.5-2.5V5c0-1.417-1.084-2.5-2.5-2.5zM3.333 4.167h13.334c.333 0 .583.166.75.5L10 9.833 2.583 4.667c.167-.334.417-.5.75-.5zM2.5 15c0 .5.333.833.833.833h13.334c.5 0 .833-.333.833-.833V6.583l-7 4.917c-.167.083-.333.167-.5.167-.167 0-.333-.084-.5-.167l-7-4.917V15z" fill="#000"/><mask id="a" maskUnits="userSpaceOnUse" x="0" y="2" width="20" height="16"><path fill-rule="evenodd" clip-rule="evenodd" d="M16.667 2.5H3.333C1.917 2.5.833 3.583.833 5v10c0 1.417 1.084 2.5 2.5 2.5h13.334c1.416 0 2.5-1.083 2.5-2.5V5c0-1.417-1.084-2.5-2.5-2.5zM3.333 4.167h13.334c.333 0 .583.166.75.5L10 9.833 2.583 4.667c.167-.334.417-.5.75-.5zM2.5 15c0 .5.333.833.833.833h13.334c.5 0 .833-.333.833-.833V6.583l-7 4.917c-.167.083-.333.167-.5.167-.167 0-.333-.084-.5-.167l-7-4.917V15z" fill="#fff"/></mask><g mask="url(#a)"><path fill="#7930AE" d="M0 0h20v20H0z"/></g></svg>