<svg width="15" height="15" fill="none" xmlns="http://www.w3.org/2000/svg"><path fill-rule="evenodd" clip-rule="evenodd" d="M12.5 1.875h-10A1.842 1.842 0 00.625 3.75v7.5A1.84 1.84 0 002.5 13.125h10a1.842 1.842 0 001.875-1.875v-7.5A1.842 1.842 0 0012.5 1.875zm-10 1.25h10c.25 0 .438.125.563.375L7.5 7.375 1.937 3.5c.125-.25.313-.375.563-.375zm-.625 8.125c0 .375.25.625.625.625h10c.375 0 .625-.25.625-.625V4.937l-5.25 3.688c-.125.063-.25.125-.375.125s-.25-.063-.375-.125l-5.25-3.688v6.313z" fill="#000"/><mask id="a" maskUnits="userSpaceOnUse" x="0" y="1" width="15" height="13"><path fill-rule="evenodd" clip-rule="evenodd" d="M12.5 1.875h-10A1.842 1.842 0 00.625 3.75v7.5A1.84 1.84 0 002.5 13.125h10a1.842 1.842 0 001.875-1.875v-7.5A1.842 1.842 0 0012.5 1.875zm-10 1.25h10c.25 0 .438.125.563.375L7.5 7.375 1.937 3.5c.125-.25.313-.375.563-.375zm-.625 8.125c0 .375.25.625.625.625h10c.375 0 .625-.25.625-.625V4.937l-5.25 3.688c-.125.063-.25.125-.375.125s-.25-.063-.375-.125l-5.25-3.688v6.313z" fill="#fff"/></mask><g mask="url(#a)"><path fill="#F7AD00" d="M0 0h15v15H0z"/></g></svg>