<svg width="20" height="20" fill="none" xmlns="http://www.w3.org/2000/svg"><path fill-rule="evenodd" clip-rule="evenodd" d="M1.667 8.333C1.667 3.75 5.417 0 10 0s8.333 3.75 8.333 8.333c0 6.167-7.583 11.334-7.833 11.5-.167.084-.333.167-.5.167-.167 0-.333-.083-.5-.167-.25-.166-7.833-5.333-7.833-11.5zm1.666 0c0 4.5 5.084 8.667 6.667 9.834 1.583-1.167 6.667-5.334 6.667-9.834 0-3.666-3-6.666-6.667-6.666s-6.667 3-6.667 6.666zM10 5a3.343 3.343 0 00-3.333 3.333c0 1.834 1.5 3.334 3.333 3.334 1.833 0 3.333-1.5 3.333-3.334C13.333 6.5 11.833 5 10 5zM8.333 8.333C8.333 9.25 9.083 10 10 10s1.667-.75 1.667-1.667c0-.916-.75-1.666-1.667-1.666s-1.667.75-1.667 1.666z" fill="#000"/><mask id="a" maskUnits="userSpaceOnUse" x="1" y="0" width="18" height="20"><path fill-rule="evenodd" clip-rule="evenodd" d="M1.667 8.333C1.667 3.75 5.417 0 10 0s8.333 3.75 8.333 8.333c0 6.167-7.583 11.334-7.833 11.5-.167.084-.333.167-.5.167-.167 0-.333-.083-.5-.167-.25-.166-7.833-5.333-7.833-11.5zm1.666 0c0 4.5 5.084 8.667 6.667 9.834 1.583-1.167 6.667-5.334 6.667-9.834 0-3.666-3-6.666-6.667-6.666s-6.667 3-6.667 6.666zM10 5a3.343 3.343 0 00-3.333 3.333c0 1.834 1.5 3.334 3.333 3.334 1.833 0 3.333-1.5 3.333-3.334C13.333 6.5 11.833 5 10 5zM8.333 8.333C8.333 9.25 9.083 10 10 10s1.667-.75 1.667-1.667c0-.916-.75-1.666-1.667-1.666s-1.667.75-1.667 1.666z" fill="#fff"/></mask><g mask="url(#a)"><path fill="#F7AD00" d="M0 0h20v20H0z"/></g></svg>