<svg width="40" height="40" fill="none" xmlns="http://www.w3.org/2000/svg"><rect width="40" height="40" rx="20" fill="#068C96"/><path d="M20 10.7a2.853 2.853 0 012.85 2.849A2.853 2.853 0 0120 16.397a2.852 2.852 0 01-2.849-2.848A2.852 2.852 0 0120 10.699zm0 9.729a6.888 6.888 0 006.882-6.88A6.89 6.89 0 0020 6.666a6.89 6.89 0 00-6.883 6.883c0 3.794 3.087 6.88 6.883 6.88zm2.784 5.613a12.884 12.884 0 003.996-1.654 2.016 2.016 0 00-2.147-3.414 8.74 8.74 0 01-9.266 0 2.014 2.014 0 00-2.78.634 2.016 2.016 0 00.632 2.78c1.23.772 2.58 1.332 3.996 1.654l-3.848 3.848a2.016 2.016 0 002.852 2.852l3.78-3.78 3.782 3.78a2.012 2.012 0 002.85 0 2.012 2.012 0 000-2.85l-3.847-3.85z" fill="#fff"/></svg>