<svg width="49" height="49" fill="none" xmlns="http://www.w3.org/2000/svg"><rect x=".2" y=".125" width="48.263" height="48.263" rx="24.131" fill="#EE8208"/><path d="M24.33 13.035a3.442 3.442 0 013.439 3.438 3.442 3.442 0 01-3.438 3.436 3.442 3.442 0 01-3.438-3.436 3.442 3.442 0 013.438-3.438zm0 11.738c4.58 0 8.305-3.723 8.305-8.3 0-4.58-3.724-8.305-8.304-8.305s-8.304 3.725-8.304 8.305c0 4.577 3.725 8.3 8.304 8.3zm3.36 6.774a15.544 15.544 0 004.822-1.997 2.432 2.432 0 00-2.591-4.119 10.545 10.545 0 01-11.18 0 2.432 2.432 0 10-2.592 4.12 15.561 15.561 0 004.821 1.996l-4.642 4.643a2.433 2.433 0 103.442 3.44l4.56-4.562 4.563 4.562a2.43 2.43 0 103.439-3.44l-4.642-4.643z" fill="#fff"/></svg>