<svg width="25" height="25" fill="none" xmlns="http://www.w3.org/2000/svg"><path fill-rule="evenodd" clip-rule="evenodd" d="M19 17.25l5.625 5.625c.5.5.5 1.25 0 1.75a1.35 1.35 0 01-.875.375 1.35 1.35 0 01-.875-.375L17.25 19c-1.875 1.375-4.125 2.25-6.625 2.25A10.616 10.616 0 010 10.625C0 4.75 4.75 0 10.625 0S21.25 4.75 21.25 10.625c0 2.5-.875 4.875-2.25 6.625zM10.625 2.5A8.109 8.109 0 002.5 10.625c0 4.5 3.625 8.125 8.125 8.125 2.25 0 4.25-.875 5.75-2.375s2.375-3.5 2.375-5.75c0-4.5-3.625-8.125-8.125-8.125z" fill="#fff"/></svg>