<svg width="17" height="17" fill="none" xmlns="http://www.w3.org/2000/svg"><path fill-rule="evenodd" clip-rule="evenodd" d="M12.92 11.73l3.825 3.825c.34.34.34.85 0 1.19a.918.918 0 01-.595.255.918.918 0 01-.595-.255L11.73 12.92c-1.275.935-2.805 1.53-4.505 1.53A7.219 7.219 0 010 7.225 7.219 7.219 0 017.225 0a7.219 7.219 0 017.225 7.225c0 1.7-.595 3.315-1.53 4.505zM7.226 1.7A5.514 5.514 0 001.7 7.227a5.514 5.514 0 005.525 5.525c1.53 0 2.89-.595 3.91-1.615a5.457 5.457 0 001.615-3.91A5.514 5.514 0 007.226 1.7z" fill="#7930AE"/></svg>