<svg width="90" height="90" fill="none" xmlns="http://www.w3.org/2000/svg"><circle cx="45" cy="45" r="44.5" fill="#fff" stroke="#E6E6E6"/><path d="M62.815 41.624V24.1a4.064 4.064 0 00-4.06-4.059H22.06a4.064 4.064 0 00-4.06 4.06v36.696a4.064 4.064 0 004.06 4.06h23.63c2.755 3.745 7.192 6.181 12.188 6.181 8.338 0 15.121-6.783 15.121-15.12 0-6.61-4.264-12.243-10.185-14.294zM36.421 23.345h7.973v9.122l-3.373-1.348a1.656 1.656 0 00-1.227 0l-3.373 1.348v-9.121zM22.06 61.553a.756.756 0 01-.755-.755V24.1c0-.416.34-.755.755-.755h11.058v11.561a1.653 1.653 0 002.265 1.535l5.026-2.008 5.025 2.008a1.652 1.652 0 002.265-1.535v-11.56h11.058c.416 0 .755.338.755.754v16.785a15.182 15.182 0 00-1.632-.088c-8.338 0-15.12 6.783-15.12 15.12 0 1.991.386 3.892 1.088 5.635H22.06zm35.82 6.182c-6.516 0-11.816-5.301-11.816-11.817 0-6.515 5.3-11.816 11.816-11.816 6.515 0 11.816 5.3 11.816 11.816 0 6.516-5.3 11.817-11.816 11.817z" fill="#7930AE"/><path d="M63.895 54.374h-4.474V49.9a1.652 1.652 0 10-3.304 0v6.127c0 .912.74 1.652 1.652 1.652h6.126a1.652 1.652 0 100-3.305z" fill="#7930AE"/></svg>