<svg width="90" height="90" fill="none" xmlns="http://www.w3.org/2000/svg"><circle cx="45" cy="45" r="44.5" fill="#fff" stroke="#E6E6E6"/><path d="M68.166 20.33H29.279a4.84 4.84 0 00-4.834 4.834v8.057h-1.611A4.84 4.84 0 0018 38.055v25.78a4.84 4.84 0 004.834 4.835h38.887a4.84 4.84 0 004.834-4.834v-8.057h1.611A4.84 4.84 0 0073 50.945v-25.78a4.84 4.84 0 00-4.834-4.835zm-4.834 43.506c0 .888-.723 1.611-1.611 1.611H22.834a1.613 1.613 0 01-1.611-1.611V49.334h42.109v14.502zm0-17.725h-42.11V42.89h42.11v3.222zm0-6.445h-42.11v-1.611c0-.889.723-1.612 1.612-1.612h38.887c.888 0 1.611.723 1.611 1.612v1.611zm6.445 11.28c0 .888-.722 1.61-1.611 1.61h-1.611v-14.5a4.84 4.84 0 00-4.834-4.834H27.668v-8.057c0-.888.723-1.611 1.611-1.611h38.887c.889 0 1.611.723 1.611 1.611v25.781z" fill="#7930AE"/><path d="M35.725 52.557a4.813 4.813 0 00-3.223 1.234 4.814 4.814 0 00-3.223-1.234 4.84 4.84 0 00-4.834 4.834 4.84 4.84 0 004.834 4.834 4.814 4.814 0 003.223-1.235 4.814 4.814 0 003.223 1.235 4.84 4.84 0 004.834-4.834 4.84 4.84 0 00-4.834-4.834zm-6.446 6.445a1.613 1.613 0 01-1.611-1.611c0-.889.723-1.612 1.611-1.612.889 0 1.612.723 1.612 1.612 0 .888-.723 1.611-1.612 1.611zm6.446 0a1.613 1.613 0 01-1.612-1.611c0-.889.723-1.612 1.612-1.612a1.613 1.613 0 010 3.223zm12.998-3.222H45.5a1.611 1.611 0 100 3.222h3.223a1.611 1.611 0 000-3.223zm9.775 0h-3.223a1.611 1.611 0 100 3.222h3.223a1.611 1.611 0 000-3.223z" fill="#7930AE"/></svg>