<svg width="90" height="90" fill="none" xmlns="http://www.w3.org/2000/svg"><circle cx="45" cy="45" r="44.5" fill="#fff" stroke="#E6E6E6"/><g clip-path="url(#clip0)" fill="#7930AE"><path d="M45.895 10.34a1.611 1.611 0 00-2.014 0C33.865 18.355 29.785 29.648 29.97 42.372c.052 3.641.451 7.152 1.01 10.368-2.34 2.156-3.816 5.666-3.816 9.2v6.447a1.612 1.612 0 003.008.805 22.432 22.432 0 012.641-3.619 12.44 12.44 0 011.085-1.067c.656 2.08 1.257 3.77 1.364 4.238a1.612 1.612 0 001.57 1.254h3.73c.988 6.415 2.839 8.356 3.117 8.615.589.549 1.565.638 2.3-.096.636-.636 2.19-2.731 3.045-8.519h3.923c.758 0 1.414-.529 1.575-1.27.11-.503.666-2.104 1.283-4.073.986.942 2.27 2.489 3.905 4.692.927 1.25 2.905.582 2.906-.96V61.94c0-3.324-1.505-6.756-3.892-9 .6-3.377 1.029-7.083 1.066-10.907.124-12.662-4.008-23.785-13.894-31.694zm-1.007 3.353c2.639 2.275 4.826 4.85 6.565 7.72-1.846.962-4.086 1.465-6.565 1.466-2.488 0-4.736-.508-6.585-1.477 1.747-2.86 3.94-5.432 6.585-7.71zM30.386 63.445v-1.504c0-1.819.528-3.656 1.41-5.127.36 1.59.745 3.07 1.121 4.412-.91.581-1.771 1.38-2.53 2.219zm7.643 3.33c-.24-.733-.552-1.641-1.039-3.223h3c.041 1.157.106 2.23.191 3.223H38.03zm5.136-6.008c0-1.66.645-2.607 1.613-3.618.942.986 1.61 1.963 1.61 3.618 0 7.075-.845 11.08-1.59 13.235-.763-2.194-1.633-6.231-1.633-13.234zm8.571 6.008h-2.35c.08-.992.142-2.065.18-3.223h3.194c-.49 1.61-.717 2.26-1.024 3.223zm7.656-4.834v1.825c-1.032-1.18-1.862-1.96-2.588-2.476a93.31 93.31 0 001.096-4.307c.933 1.476 1.492 3.257 1.492 4.958zm-5.707-1.611H49.6c-.151-3.176-1.81-4.722-3.683-6.595a1.61 1.61 0 00-2.279 0c-1.75 1.75-3.526 3.34-3.683 6.595h-3.902c-4.014-14.67-3.77-26.74.713-36.095 2.32 1.225 5.093 1.866 8.124 1.866 3.016 0 5.779-.636 8.093-1.85 4.43 9.33 4.672 21.396.703 36.079z"/><path d="M44.888 29.324c-4.442 0-8.057 3.614-8.057 8.057 0 4.443 3.615 8.057 8.057 8.057 4.443 0 8.058-3.614 8.058-8.057 0-4.443-3.615-8.057-8.058-8.057zm4.835 8.057a4.84 4.84 0 01-4.835 4.834 4.84 4.84 0 01-4.834-4.834 4.84 4.84 0 014.834-4.834 4.84 4.84 0 014.835 4.834z"/></g><defs><clipPath id="clip0"><path fill="#fff" transform="rotate(-45 60.81 16.703)" d="M0 0h55v55H0z"/></clipPath></defs></svg>