<svg width="90" height="90" fill="none" xmlns="http://www.w3.org/2000/svg"><circle cx="45" cy="45" r="44.5" fill="#fff" stroke="#E6E6E6"/><path d="M45.5 17C30.317 17 18 29.42 18 44.5 18 59.642 30.359 72 45.5 72 60.642 72 73 59.641 73 44.5 73 29.358 60.641 17 45.5 17zm0 3.223c2.682 0 5.264.438 7.678 1.245-.453.668-.735 1.551-.735 2.691 0 1.74.777 3.297 1.53 4.801.612 1.224 1.19 2.38 1.19 3.36 0 .567-.135.697-.599.852-.885.295-2.528.26-3.652.256-2.656-.009-5.667-.018-8.879 3.193-.443.444-.684.467-2.22-.302-1.406-.703-3.76-1.88-5.94.302-1.276 1.276-1.78 3.073-1.427 4.895-1.577-.612-3.757-.895-4.024-1.572-.123-.313-.316-1.675 2.386-6.061 1.002-1.627 2.205-4.01 1.095-5.92-.539-.925-1.441-1.418-2.438-1.675A24.176 24.176 0 0145.5 20.223zm0 48.554c-13.387 0-24.277-10.89-24.277-24.277a24.16 24.16 0 015.398-15.244c1.857-.016 2.358.21 2.492.33.018.105.067.795-1.05 2.607-2.633 4.275-3.422 6.947-2.639 8.933 1.058 2.684 4.38 2.688 6.183 3.534 1.091.512 6.598 3.049 7.234 3.994v2.708c0 2.02 1.906 3.11 3.438 3.986.62.355 1.912 1.093 2.003 1.455 0 6.428.618 9.966 1.416 11.972l-.198.002zm4.192-1.742c.01.324-.329.984-.621 1.28-.411-.57-1.567-2.937-1.567-11.512 0-2.18-2.01-3.329-3.625-4.253-.568-.325-1.621-.921-1.826-1.25v-2.658c0-.434-.07-.822-.21-1.17 2.679-.246 3.983-1.19 4.973-1.905.694-.502 1.043-.754 1.797-.754l.033.001c.17.083.53.685.745 1.045 1.827 3.053 3.61 4.144 7.104 4.91.468.102 1.165.255 1.372.392a.986.986 0 01.016.201c0 3.325-2.56 5.734-4.818 7.86-1.81 1.704-3.374 3.176-3.374 5.043 0 .261-.004 2.628 0 2.77zm3.173.6c.037-.234.043-.464.037-.687-.002-.218 0-2.666 0-2.682 0-.003.025-.235.514-.827.455-.55 1.136-1.192 1.858-1.871 2.461-2.316 5.832-5.489 5.832-10.206 0-1.616-.815-2.475-1.499-2.911-.714-.457-1.544-.638-2.423-.83-2.61-.573-3.66-1.132-5.028-3.416-.66-1.104-1.564-2.615-3.543-2.615-1.797 0-2.844.757-3.686 1.365-.963.697-1.873 1.355-4.474 1.355-2.585 0-4.122-1.497-4.653-2.78-.2-.484-.568-1.71.351-2.63.444-.444.684-.467 2.22.302 1.407.703 3.76 1.88 5.941-.302 2.264-2.264 4.173-2.257 6.59-2.25 1.546.005 3.306.037 4.681-.421 1.807-.603 2.803-1.99 2.803-3.91 0-1.74-.779-3.296-1.53-4.8-.613-1.224-1.19-2.38-1.19-3.36 0-.756.164-1.18.998-1.213 7.784 4.048 13.113 12.19 13.113 21.554 0 10.82-7.115 20.008-16.912 23.134z" fill="#7930AE"/></svg>