<svg width="150" height="144" fill="none" xmlns="http://www.w3.org/2000/svg"><path d="M42.577 61.934L54.21 51.36c11.865-10.69 13.96-17.895 13.96-25.912C68.17 9.993 54.558 0 35.247 0 17.682 0 5.933 7.67 0 18.824l20.707 10.342c2.443-4.88 7.096-7.553 11.982-7.553 5.234 0 7.91 2.44 7.91 6.391 0 2.789-.814 5.926-6.398 11.155L4.77 66.35V83.2h65.26V61.933H42.577zm69.96 23.124c21.521 0 36.876-15.571 36.876-42.53C149.413 15.572 134.058 0 112.537 0 91.016 0 75.66 15.57 75.66 42.529c0 26.958 15.356 42.529 36.877 42.529zm0-21.962c-5.351 0-9.306-4.88-9.306-20.567 0-15.687 3.955-20.567 9.306-20.567 5.351 0 9.306 4.88 9.306 20.567 0 15.687-3.955 20.567-9.306 20.567zM9.005 99.338l-.622 18.538c-.233 6.387-.933 9.97-5.444 9.97-.545 0-1.167-.078-1.789-.156l-.7 14.254c3.111.779 5.833 1.169 8.167 1.169 11.588 0 14.544-9.114 15.166-24.536l.234-5.531h8.01v28.898h17.578V99.338h-40.6zm93.589 21.264c0-14.41-10.81-22.043-23.41-22.043-13.767 0-24.112 9.113-24.112 22.043 0 12.696 10.111 22.121 25.745 22.121 8.477 0 14.466-2.337 18.589-6.854l-9.178-9.269c-2.8 2.103-4.978 3.115-8.867 3.115-4.355 0-7.311-1.713-8.555-4.985h29.555c.078-1.246.233-2.882.233-4.128zm-23.255-10.048c3.578 0 6.144 2.103 6.844 5.686H72.494c.7-3.583 3.19-5.686 6.845-5.686zm68.724-11.216h-43.477v13.708h12.988v28.898h17.5v-28.898h12.989V99.337z" fill="#F7AD00"/></svg>