<svg width="90" height="90" fill="none" xmlns="http://www.w3.org/2000/svg"><circle cx="45" cy="45" r="44.5" fill="#fff" stroke="#E6E6E6"/><path d="M64.836 24.445h-5.45l-2.777-5.554-.013-.024A1.613 1.613 0 0055.168 18H35.832c-.605 0-1.169.345-1.441.89l-2.777 5.555h-5.45a4.84 4.84 0 00-4.834 4.834v38.887A4.84 4.84 0 0026.164 73h38.672a4.84 4.84 0 004.834-4.834V29.279a4.84 4.84 0 00-4.834-4.834zM60.002 56.78h6.445v3.223h-6.445V56.78zm0-3.222v-3.223h6.445v3.223h-6.445zM45.5 32.593l-2.955-4.925h5.91L45.5 32.593zm4.889-8.148H40.61l-1.933-3.222h13.644l-1.934 3.222zM35.96 22.957l7.263 12.105-3.448 1.723-5.364-10.728 1.55-3.1zm19.08 0l1.55 3.1-5.366 10.728-3.447-1.723 7.263-12.105zM24.553 68.166V29.279c0-.888.723-1.611 1.611-1.611h5.45l6 12a1.611 1.611 0 002.161.72l4.114-2.056v31.445H26.164a1.613 1.613 0 01-1.611-1.611zm40.283 1.611H47.11V38.332l4.114 2.057a1.611 1.611 0 002.161-.72l6-12.001h5.45c.888 0 1.611.723 1.611 1.611v17.832H58.39c-.89 0-1.612.722-1.612 1.612v12.89c0 .89.722 1.612 1.612 1.612h8.056v4.941c0 .888-.723 1.611-1.611 1.611z" fill="#7930AE"/><path d="M26.164 53.557a4.84 4.84 0 014.834 4.834 1.611 1.611 0 103.223 0 4.84 4.84 0 014.834-4.834 1.611 1.611 0 100-3.223A4.84 4.84 0 0134.22 45.5a1.611 1.611 0 10-3.223 0 4.84 4.84 0 01-4.834 4.834 1.611 1.611 0 100 3.223zm6.445-3.228a8.114 8.114 0 001.617 1.616 8.127 8.127 0 00-1.617 1.617 8.117 8.117 0 00-1.616-1.617 8.135 8.135 0 001.616-1.616zm20.945-1.606a1.611 1.611 0 11-3.223 0 1.611 1.611 0 013.223 0zm0 6.445a1.611 1.611 0 11-3.223 0 1.611 1.611 0 013.223 0zm0 6.445a1.611 1.611 0 11-3.223 0 1.611 1.611 0 013.223 0z" fill="#7930AE"/></svg>