<svg width="90" height="90" fill="none" xmlns="http://www.w3.org/2000/svg"><circle cx="45" cy="45" r="44.5" fill="#fff" stroke="#E6E6E6"/><path d="M68.541 45.188a1.557 1.557 0 010-1.377l1.982-4.055a4.614 4.614 0 00-1.99-6.127l-3.988-2.116a1.558 1.558 0 01-.81-1.114l-.779-4.446a4.614 4.614 0 00-5.212-3.787l-4.47.632a1.558 1.558 0 01-1.309-.425l-3.244-3.139a4.614 4.614 0 00-6.442 0l-3.245 3.14c-.35.338-.826.493-1.309.425l-4.47-.633a4.614 4.614 0 00-5.211 3.787l-.78 4.446c-.084.48-.38.886-.81 1.114l-3.986 2.116a4.614 4.614 0 00-1.991 6.127l1.982 4.055c.214.438.214.94 0 1.377l-1.982 4.055a4.614 4.614 0 001.99 6.127l3.988 2.116c.43.228.725.634.809 1.114l.78 4.446a4.611 4.611 0 005.212 3.787l4.47-.633c.481-.068.959.087 1.309.426l3.244 3.138a4.618 4.618 0 003.221 1.31 4.62 4.62 0 003.221-1.31l3.244-3.138a1.56 1.56 0 011.31-.426l4.47.633a4.614 4.614 0 005.211-3.787l.78-4.446c.084-.48.38-.886.81-1.114l3.987-2.116a4.614 4.614 0 001.99-6.127l-1.982-4.055zm-1.445 7.474l-3.988 2.116a4.604 4.604 0 00-2.391 3.292l-.78 4.446a1.561 1.561 0 01-1.764 1.281l-4.469-.632a4.602 4.602 0 00-3.87 1.257l-3.244 3.139a1.561 1.561 0 01-2.18 0l-3.244-3.139a4.599 4.599 0 00-3.87-1.257l-4.47.632a1.561 1.561 0 01-1.763-1.281l-.78-4.446a4.603 4.603 0 00-2.392-3.292l-3.987-2.116a1.561 1.561 0 01-.674-2.073l1.983-4.055a4.603 4.603 0 000-4.07L23.23 38.41a1.561 1.561 0 01.674-2.073l3.987-2.116a4.603 4.603 0 002.392-3.292l.78-4.446a1.56 1.56 0 011.763-1.281l4.47.632a4.603 4.603 0 003.87-1.258l3.244-3.138a1.561 1.561 0 012.18 0l3.244 3.138a4.603 4.603 0 003.87 1.258l4.47-.632a1.561 1.561 0 011.763 1.28l.78 4.447a4.603 4.603 0 002.391 3.292l3.988 2.116a1.561 1.561 0 01.673 2.072l-1.982 4.056a4.603 4.603 0 000 4.069l1.982 4.055a1.561 1.561 0 01-.673 2.073z" fill="#7930AE"/><path d="M57.578 32.422a1.653 1.653 0 00-2.338 0L33.422 54.24a1.653 1.653 0 002.338 2.338l21.818-21.819a1.653 1.653 0 000-2.337zm-18.69-2.799a6.068 6.068 0 00-6.06 6.061 6.068 6.068 0 006.06 6.061 6.068 6.068 0 006.061-6.061 6.068 6.068 0 00-6.06-6.061zm0 8.816a2.758 2.758 0 01-2.755-2.755 2.758 2.758 0 012.755-2.755 2.758 2.758 0 012.755 2.755 2.758 2.758 0 01-2.755 2.755zm13.224 8.817a6.068 6.068 0 00-6.061 6.06 6.068 6.068 0 006.06 6.062 6.068 6.068 0 006.062-6.061 6.068 6.068 0 00-6.061-6.061zm0 8.816a2.758 2.758 0 01-2.755-2.755 2.758 2.758 0 012.755-2.755 2.758 2.758 0 012.755 2.755 2.758 2.758 0 01-2.755 2.755z" fill="#7930AE"/></svg>