<svg width="22" height="22" fill="none" xmlns="http://www.w3.org/2000/svg"><path d="M21 16.53v3.353c0 .335-.112.558-.335.782-.224.223-.447.335-.894.335-3.24-.335-6.369-1.453-9.162-3.24-2.57-1.565-4.693-3.8-6.369-6.369C2.453 8.598 1.335 5.47 1 2.23c0-.335.112-.559.223-.782.224-.224.56-.447.894-.447H5.47c.559 0 1.006.447 1.118 1.006a11.44 11.44 0 00.893 3.352c.112.446 0 .893-.223 1.229l-1.453 1.34a1.188 1.188 0 00-.223 1.341 18.334 18.334 0 007.15 7.151c.448.223 1.006.223 1.342-.224l1.452-1.452c.335-.335.782-.447 1.23-.223 1.117.447 2.234.67 3.351.893.447.112.894.56.894 1.118z" fill="#F7AD00" stroke="#F7AD00" stroke-width="2"/></svg>