<svg width="25" height="22" fill="none" xmlns="http://www.w3.org/2000/svg"><path fill-rule="evenodd" clip-rule="evenodd" d="M18.446 20.904c1.398.612 1.922-.67 1.922-.67l3.7-18.58c-.03-1.253-1.72-.495-1.72-.495L1.643 9.284s-.99.35-.903.961c.088.612.874.903.874.903l5.213 1.747S8.4 18.05 8.72 19.04c.291.961.553.99.553.99.292.117.554-.087.554-.087l3.378-3.058 5.242 4.02zm.903-15.96s.728-.436.7 0c0 0 .116.059-.263.466-.35.35-8.592 7.747-9.698 8.738a.306.306 0 00-.146.262l-.32 2.737c-.058.292-.437.32-.524.059l-1.37-4.486a.429.429 0 01.176-.495l11.445-7.28z" fill="#068C96"/></svg>