<svg width="40" height="40" fill="none" xmlns="http://www.w3.org/2000/svg"><rect width="40" height="40" rx="20" fill="#068C96"/><path fill-rule="evenodd" clip-rule="evenodd" d="M24.446 29.904c1.398.612 1.922-.67 1.922-.67l3.7-18.58c-.03-1.253-1.72-.495-1.72-.495L7.643 18.284s-.99.35-.903.961c.088.612.874.903.874.903l5.213 1.747S14.4 27.05 14.72 28.04c.291.961.553.99.553.99.292.117.554-.087.554-.087l3.378-3.058 5.242 4.02zm.903-15.96s.728-.436.7 0c0 0 .116.059-.263.466-.35.35-8.591 7.747-9.698 8.737a.306.306 0 00-.146.263l-.32 2.737c-.058.291-.437.32-.524.058l-1.37-4.485a.429.429 0 01.176-.495l11.445-7.28z" fill="#fff"/></svg>