<svg width="35" height="35" fill="none" xmlns="http://www.w3.org/2000/svg"><path fill-rule="evenodd" clip-rule="evenodd" d="M17.5 32.5c8.284 0 15-6.716 15-15 0-8.284-6.716-15-15-15-8.284 0-15 6.716-15 15 0 8.284 6.716 15 15 15zm0 2.5C27.165 35 35 27.165 35 17.5S27.165 0 17.5 0 0 7.835 0 17.5 7.835 35 17.5 35z" fill="#7930AE"/><path d="M29.75 30.14v-1.264c0 .816-.544 1.36-1.361 1.36s-1.361-.544-1.361-1.36v1.264c0-2.314-1.77-4.084-4.084-4.084H12.056c-2.314 0-4.084 1.77-4.084 4.084v-1.264c0 .816-.544 1.36-1.36 1.36-.818 0-1.362-.544-1.362-1.36v1.264c0-3.812 2.994-6.806 6.806-6.806h10.888c3.812 0 6.806 2.994 6.806 6.806z" fill="#7930AE"/><path fill-rule="evenodd" clip-rule="evenodd" d="M17.5 7c-3.811 0-6.806 2.994-6.806 6.806 0 3.81 2.995 6.805 6.806 6.805s6.805-2.994 6.805-6.805C24.305 9.994 21.311 7 17.5 7zm0 10.889c-2.314 0-4.083-1.77-4.083-4.083 0-2.314 1.77-4.084 4.083-4.084 2.314 0 4.083 1.77 4.083 4.084 0 2.313-1.77 4.083-4.083 4.083z" fill="#7930AE"/></svg>