<svg width="40" height="40" fill="none" xmlns="http://www.w3.org/2000/svg"><rect width="40" height="40" rx="20" fill="#068C96"/><path d="M29.795 10.154c-.662-.608-3.34-2.555-9.31-2.582 0 0-7.038-.427-10.468 2.721-1.91 1.91-2.583 4.7-2.652 8.169-.07 3.462-.16 9.955 6.098 11.716h.006l-.006 2.683s-.037 1.089.678 1.308c.864.266 1.376-.56 2.203-1.452a79.797 79.797 0 001.553-1.755c4.279.358 7.57-.464 7.944-.587.864-.283 5.757-.907 6.552-7.4.822-6.68-.4-10.91-2.598-12.82zm.725 12.352c-.672 5.42-4.636 5.762-5.367 5.997-.31.1-3.201.821-6.84.581 0 0-2.71 3.27-3.553 4.119-.134.133-.288.187-.39.16-.144-.037-.186-.208-.181-.459 0-.363.021-4.466.021-4.466-.005 0-.005 0 0 0-5.298-1.467-4.988-6.994-4.93-9.886.06-2.891.603-5.266 2.22-6.861 2.897-2.625 8.878-2.235 8.878-2.235 5.047.02 7.464 1.541 8.024 2.048 1.862 1.6 2.812 5.416 2.118 11.002z" fill="#fff"/><path d="M22.944 18.653a.339.339 0 01-.336-.32c-.059-1.147-.598-1.707-1.697-1.766a.34.34 0 01.038-.678c1.45.08 2.262.913 2.336 2.406a.332.332 0 01-.32.353c-.01.005-.016.005-.021.005z" fill="#fff"/><path d="M24.673 19.23h-.006a.34.34 0 01-.33-.347c.026-1.152-.305-2.086-1.009-2.854-.699-.769-1.664-1.185-2.94-1.275a.336.336 0 01-.309-.363.336.336 0 01.363-.31c1.44.107 2.577.609 3.388 1.494.816.891 1.21 2.006 1.184 3.324a.342.342 0 01-.341.33z" fill="#fff"/><path d="M26.444 19.923a.335.335 0 01-.336-.336c-.016-2.065-.608-3.639-1.814-4.818-1.19-1.163-2.7-1.755-4.477-1.771a.34.34 0 010-.678c1.959.016 3.623.673 4.941 1.964 1.323 1.29 2 3.073 2.022 5.292a.334.334 0 01-.336.347c.005 0 .005 0 0 0zm-5.453 2.908s.475.043.731-.272l.496-.624c.24-.31.822-.507 1.388-.192.314.176.885.528 1.237.79.38.277 1.148.917 1.153.922.368.31.453.763.203 1.249v.01c-.257.454-.603.88-1.035 1.276-.006 0-.006.005-.011.005-.357.299-.71.47-1.051.507-.043.01-.09.01-.155.01-.15 0-.299-.02-.448-.069l-.01-.016c-.534-.15-1.42-.523-2.892-1.339a17.167 17.167 0 01-2.433-1.606 12.427 12.427 0 01-1.206-1.083l-.037-.037a13.367 13.367 0 01-.971-1.094 16.873 16.873 0 01-1.606-2.433c-.817-1.478-1.19-2.363-1.34-2.892l-.015-.01a1.454 1.454 0 01-.07-.448c0-.064 0-.112.01-.155.043-.347.214-.694.508-1.051 0-.006.005-.006.005-.01a5.084 5.084 0 011.275-1.036h.01c.481-.25.934-.165 1.25.203 0 0 .645.773.922 1.152.262.358.614.923.79 1.238.315.566.117 1.147-.192 1.387l-.624.496c-.315.256-.273.731-.273.731s.923 3.51 4.391 4.391z" fill="#fff"/></svg>