<svg width="40" height="40" fill="none" xmlns="http://www.w3.org/2000/svg"><rect width="40" height="40" rx="20" fill="#068C96"/><path fill-rule="evenodd" clip-rule="evenodd" d="M32.721 13.78c.186-.619 0-1.073-.882-1.073h-2.917c-.742 0-1.084.392-1.27.825 0 0-1.483 3.616-3.585 5.965-.68.68-.989.896-1.36.896-.185 0-.453-.216-.453-.834v-5.78c0-.742-.216-1.072-.834-1.072h-4.584c-.464 0-.742.344-.742.67 0 .704 1.05.866 1.159 2.844v4.296c0 .942-.17 1.113-.541 1.113-.99 0-3.395-3.633-4.822-7.789-.28-.808-.56-1.134-1.306-1.134H7.667c-.834 0-1 .392-1 .825 0 .773.989 4.605 4.605 9.674 2.41 3.461 5.807 5.338 8.898 5.338 1.854 0 2.084-.417 2.084-1.135v-2.616c0-.833.175-1 .762-1 .433 0 1.175.217 2.906 1.886 1.978 1.977 2.304 2.865 3.417 2.865h2.917c.834 0 1.25-.417 1.01-1.24-.263-.819-1.208-2.008-2.46-3.418-.68-.804-1.7-1.669-2.01-2.102-.432-.556-.309-.803 0-1.297 0 0 3.555-5.007 3.925-6.707z" fill="#fff"/></svg>