<svg width="54" height="33" fill="none" xmlns="http://www.w3.org/2000/svg"><path fill-rule="evenodd" clip-rule="evenodd" d="M52.761 2.638c.376-1.251 0-2.171-1.787-2.171h-5.907c-1.502 0-2.194.794-2.57 1.67 0 0-3.005 7.323-7.26 12.08-1.377 1.377-2.003 1.814-2.754 1.814-.376 0-.92-.437-.92-1.689V2.638c0-1.502-.435-2.171-1.687-2.171h-9.284c-.938 0-1.503.697-1.503 1.358 0 1.424 2.128 1.752 2.347 5.757v8.7c0 1.908-.344 2.254-1.095 2.254-2.003 0-6.874-7.356-9.764-15.772C10.011 1.128 9.443.467 7.933.467H2.025C.338.467 0 1.26 0 2.137c0 1.565 2.003 9.326 9.326 19.59 4.882 7.01 11.76 10.81 18.018 10.81 3.755 0 4.22-.844 4.22-2.298v-5.298c0-1.688.355-2.024 1.544-2.024.877 0 2.379.438 5.884 3.817 4.005 4.005 4.665 5.803 6.919 5.803h5.907c1.688 0 2.532-.844 2.045-2.51-.532-1.66-2.445-4.068-4.982-6.923-1.377-1.627-3.443-3.38-4.068-4.256-.877-1.126-.627-1.627 0-2.628 0 0 7.197-10.139 7.948-13.581z" fill="#fff"/></svg>