<svg width="49" height="49" fill="none" xmlns="http://www.w3.org/2000/svg"><rect x=".537" y=".125" width="48.263" height="48.263" rx="24.131" fill="#5181B8"/><path fill-rule="evenodd" clip-rule="evenodd" d="M40.018 16.75c.224-.745 0-1.293-1.065-1.293h-3.52c-.895 0-1.307.473-1.53.996 0 0-1.79 4.363-4.327 7.197-.82.82-1.193 1.08-1.64 1.08-.224 0-.548-.26-.548-1.006v-6.973c0-.895-.26-1.294-1.006-1.294h-5.531c-.56 0-.896.415-.896.81 0 .848 1.268 1.043 1.399 3.43v5.184c0 1.136-.206 1.342-.653 1.342-1.193 0-4.096-4.383-5.818-9.397-.337-.975-.675-1.369-1.575-1.369h-3.52c-1.006 0-1.207.473-1.207.996 0 .932 1.194 5.556 5.557 11.672 2.909 4.176 7.006 6.44 10.736 6.44 2.237 0 2.514-.502 2.514-1.369V30.04c0-1.006.212-1.207.92-1.207.523 0 1.417.261 3.506 2.275 2.386 2.386 2.78 3.457 4.122 3.457h3.52c1.006 0 1.509-.502 1.219-1.495-.318-.989-1.457-2.424-2.97-4.125-.82-.97-2.05-2.014-2.423-2.536-.522-.67-.373-.97 0-1.566 0 0 4.288-6.04 4.736-8.092z" fill="#fff"/></svg>