<svg width="40" height="40" fill="none" xmlns="http://www.w3.org/2000/svg"><rect width="40" height="40" rx="20" fill="#068C96"/><path d="M28.959 11.009c-2.144-2.207-5.108-3.405-8.135-3.405-6.433 0-11.604 5.234-11.54 11.603 0 2.018.567 3.973 1.513 5.739l-1.64 5.99 6.117-1.576c1.703.946 3.595 1.388 5.487 1.388 6.37 0 11.54-5.235 11.54-11.604 0-3.09-1.198-5.99-3.342-8.135zm-8.135 17.784c-1.703 0-3.406-.442-4.856-1.325l-.379-.189-3.657.946.946-3.595-.252-.378c-2.775-4.477-1.45-10.405 3.09-13.18 4.54-2.775 10.405-1.45 13.18 3.09 2.775 4.54 1.45 10.405-3.09 13.18-1.45.946-3.216 1.45-4.982 1.45zm5.55-7l-.694-.316s-1.01-.441-1.64-.756c-.063 0-.126-.063-.19-.063a.91.91 0 00-.44.126s-.064.063-.947 1.072a.347.347 0 01-.315.189h-.063a.478.478 0 01-.252-.126l-.316-.126c-.693-.316-1.324-.694-1.828-1.198-.127-.127-.316-.253-.442-.379-.441-.441-.883-.946-1.198-1.513l-.063-.127c-.063-.063-.063-.126-.126-.252 0-.126 0-.252.063-.315 0 0 .252-.315.441-.505.126-.126.19-.315.316-.441.126-.19.189-.441.126-.63-.063-.316-.82-2.019-1.01-2.397-.125-.19-.252-.252-.44-.315h-.694c-.127 0-.253.063-.379.063l-.063.063c-.126.063-.252.189-.378.252-.126.126-.19.252-.316.378a3.216 3.216 0 00-.693 1.955c0 .505.126 1.01.315 1.45l.063.19a10.504 10.504 0 002.333 3.216l.253.253c.189.189.378.315.504.504 1.325 1.135 2.838 1.955 4.54 2.396.19.063.442.063.631.127h.631c.315 0 .694-.127.946-.253.19-.126.315-.126.441-.252l.127-.126c.126-.126.252-.19.378-.316s.252-.252.315-.378c.126-.252.19-.567.253-.883v-.441s-.064-.063-.19-.126z" fill="#fff"/></svg>